<?xml version="1.0" encoding="utf-8"?>
<!-- Generator: Adobe Illustrator 16.0.0, SVG Export Plug-In . SVG Version: 6.00 Build 0)  -->
<!DOCTYPE svg PUBLIC "-//W3C//DTD SVG 1.1//EN" "http://www.w3.org/Graphics/SVG/1.1/DTD/svg11.dtd">
<svg version="1.1" xmlns="http://www.w3.org/2000/svg" xmlns:xlink="http://www.w3.org/1999/xlink" x="0px" y="0px"
	 width="97.646px" height="111.477px" viewBox="0 0 97.646 111.477" enable-background="new 0 0 97.646 111.477"
	 xml:space="preserve">
<g id="Layer_3">
	<g>
		<polygon fill="#FFFFFF" points="12.473,35.875 12.529,35.893 42.871,35.887 47.986,32.041 18.432,32.035 		"/>
		<path fill="#FFFFFF" d="M60.748,68.534h-1.094c-0.68,0-1.021,0.34-1.021,1.021v11.18c0,0.68,0.349,1.02,1.045,1.02h1.19
			c0.616,0,0.924-0.34,0.924-1.02v-11.18C61.793,68.874,61.444,68.534,60.748,68.534z"/>
		<path fill="#FFFFFF" d="M37.807,68.534h-1.531v6.294h1.531c0.697,0,1.045-0.422,1.045-1.264v-3.767
			C38.852,68.956,38.504,68.534,37.807,68.534z"/>
		<path fill="#FFFFFF" d="M70.055,68.534h-1.529v6.294h1.529c0.697,0,1.047-0.422,1.047-1.264v-3.767
			C71.102,68.956,70.752,68.534,70.055,68.534z"/>
		<path fill="#FFFFFF" d="M12.629,68.534h-1.094c-0.68,0-1.02,0.34-1.02,1.021v11.18c0,0.68,0.348,1.02,1.045,1.02h1.19
			c0.616,0,0.923-0.34,0.923-1.02v-11.18C13.674,68.874,13.326,68.534,12.629,68.534z"/>
		<path fill="#FFFFFF" d="M86.217,68.534h-1.629v13.22h1.75c0.615,0,0.924-0.258,0.924-0.777V69.798
			C87.262,68.956,86.912,68.534,86.217,68.534z"/>
		<path fill="#FFFFFF" d="M95.582,26.355L50.887,0.551C50.26,0.189,49.547,0,48.822,0s-1.438,0.191-2.064,0.553L2.064,26.355
			C0.791,27.092,0,28.463,0,29.934v51.608c0,1.471,0.789,2.84,2.064,3.578l44.693,25.805c0.627,0.361,1.34,0.553,2.064,0.553
			s1.438-0.191,2.066-0.553L95.582,85.12c1.275-0.736,2.064-2.107,2.064-3.578V29.934C97.646,28.461,96.855,27.09,95.582,26.355z
			 M16.008,80.905c0,1.977-0.939,2.965-2.819,2.965h-2.188c-1.88,0-2.819-0.988-2.819-2.965V69.409c0-1.993,0.932-2.989,2.795-2.989
			h2.236c1.863,0,2.795,0.996,2.795,2.989V80.905z M22.568,83.87h-2.77l-2.819-17.45h2.309l1.896,13.317l1.896-13.317h2.31
			L22.568,83.87z M32.266,68.534h-3.451v5.298h3.062v2.113h-3.062v5.809h3.451v2.115h-5.783V66.42h5.783V68.534z M39.217,83.87
			l-1.531-7.049h-1.41v7.049h-2.332V66.42h4.568c1.781,0,2.674,0.996,2.674,2.989v4.302c0,1.521-0.463,2.486-1.386,2.891
			l1.628,7.268H39.217z M52.752,83.87h-2.527l-1.434-10.111L47.382,83.87h-2.527l-2.576-17.45h2.309l1.653,13.075l1.652-13.075
			h1.822l1.652,13.075L53.02,66.42h2.309L52.752,83.87z M64.126,80.905c0,1.977-0.939,2.965-2.819,2.965h-2.188
			c-1.879,0-2.818-0.988-2.818-2.965V69.409c0-1.993,0.932-2.989,2.795-2.989h2.236c1.862,0,2.794,0.996,2.794,2.989V80.905z
			 M71.465,83.87l-1.531-7.049h-1.408v7.049h-2.334V66.42h4.568c1.783,0,2.674,0.996,2.674,2.989v4.302
			c0,1.521-0.461,2.486-1.385,2.891l1.629,7.268H71.465z M80.918,83.87h-5.541V66.42h2.334v15.334h3.207V83.87z M89.594,81.342
			c0,1.686-0.932,2.527-2.793,2.527h-4.545V66.42h4.059c2.188,0,3.279,1.118,3.279,3.354V81.342z M89.875,35.977l-10.311-0.002
			l-5.959,3.84l0.057,0.018l16.213-0.004v21.16h-1.406L67.176,39.832L55.629,51.125l-7.369-7.428L30.834,60.988H7.771V32.084
			L48.822,8.383l41.053,23.701V35.977z"/>
	</g>
</g>
<g>
	
		<line display="none" fill="none" stroke="#D2232A" stroke-width="3" stroke-linecap="square" x1="172.729" y1="20.69" x2="213.026" y2="20.69"/>
	
		<line display="none" fill="none" stroke="#00B1EB" stroke-width="3" stroke-linecap="square" x1="172.729" y1="39.351" x2="213.026" y2="39.351"/>
	<rect x="38.915" y="13.912" display="none" fill="none" stroke="#000000" width="122.817" height="13.556"/>
	<rect x="38.802" y="31.581" display="none" fill="none" stroke="#000000" width="122.817" height="13.556"/>
	<g display="none">
		<path display="inline" d="M86.581,68.958v-4.904h0.666l2.576,3.85v-3.85h0.622v4.904h-0.666l-2.576-3.854v3.854H86.581z"/>
		<path display="inline" d="M91.337,66.57c0-0.814,0.219-1.451,0.656-1.912s1.001-0.691,1.692-0.691
			c0.453,0,0.861,0.108,1.225,0.324c0.363,0.217,0.64,0.518,0.831,0.905c0.19,0.387,0.286,0.826,0.286,1.316
			c0,0.498-0.101,0.942-0.301,1.335c-0.201,0.392-0.485,0.689-0.853,0.891c-0.368,0.202-0.765,0.303-1.191,0.303
			c-0.461,0-0.874-0.111-1.237-0.334c-0.364-0.223-0.639-0.527-0.826-0.913C91.431,67.409,91.337,67,91.337,66.57z M92.006,66.58
			c0,0.591,0.159,1.057,0.477,1.396c0.317,0.34,0.716,0.51,1.196,0.51c0.488,0,0.89-0.172,1.206-0.515s0.474-0.831,0.474-1.462
			c0-0.399-0.068-0.748-0.203-1.045c-0.135-0.298-0.332-0.529-0.592-0.692c-0.26-0.164-0.552-0.246-0.875-0.246
			c-0.459,0-0.854,0.158-1.186,0.473C92.172,65.315,92.006,65.842,92.006,66.58z"/>
		<path display="inline" d="M98.111,68.958v-4.325h-1.616v-0.579h3.887v0.579H98.76v4.325H98.111z"/>
		<path display="inline" d="M101.062,68.958v-4.904h3.545v0.579h-2.896v1.502h2.713v0.575h-2.713v1.669h3.01v0.579H101.062z"/>
		<path display="inline" d="M105.708,66.092v-0.686h0.686v0.686H105.708z M105.708,68.958v-0.686h0.686v0.686H105.708z"/>
		<path display="inline" d="M109.397,68.958v-4.904h1.839c0.375,0,0.675,0.05,0.902,0.149c0.226,0.099,0.403,0.252,0.532,0.458
			c0.128,0.207,0.192,0.422,0.192,0.647c0,0.209-0.057,0.407-0.171,0.592s-0.285,0.334-0.515,0.448
			c0.297,0.087,0.525,0.235,0.684,0.445c0.16,0.209,0.239,0.457,0.239,0.743c0,0.229-0.048,0.443-0.146,0.64
			c-0.097,0.198-0.217,0.35-0.359,0.457c-0.143,0.107-0.322,0.188-0.537,0.243s-0.479,0.082-0.791,0.082H109.397z M110.046,66.115
			h1.06c0.288,0,0.494-0.019,0.619-0.057c0.165-0.049,0.289-0.131,0.373-0.245c0.084-0.113,0.125-0.256,0.125-0.428
			c0-0.163-0.039-0.306-0.117-0.43c-0.078-0.124-0.19-0.208-0.335-0.254c-0.145-0.046-0.394-0.069-0.746-0.069h-0.98V66.115z
			 M110.046,68.38h1.221c0.209,0,0.357-0.008,0.441-0.023c0.149-0.027,0.274-0.071,0.375-0.134c0.1-0.062,0.183-0.153,0.248-0.272
			c0.064-0.12,0.097-0.257,0.097-0.413c0-0.183-0.047-0.342-0.141-0.477c-0.093-0.135-0.223-0.229-0.39-0.284
			c-0.166-0.055-0.405-0.082-0.717-0.082h-1.134V68.38z"/>
		<path display="inline" d="M116.348,67.814l0.622,0.077c-0.098,0.363-0.28,0.646-0.545,0.846c-0.266,0.201-0.604,0.301-1.017,0.301
			c-0.52,0-0.932-0.16-1.236-0.48c-0.305-0.32-0.457-0.769-0.457-1.346c0-0.598,0.154-1.062,0.461-1.392s0.707-0.495,1.198-0.495
			c0.475,0,0.863,0.162,1.164,0.485c0.301,0.323,0.451,0.778,0.451,1.365c0,0.036-0.001,0.089-0.003,0.16h-2.649
			c0.022,0.391,0.133,0.689,0.331,0.896c0.199,0.208,0.446,0.312,0.743,0.312c0.221,0,0.409-0.058,0.565-0.174
			C116.133,68.254,116.257,68.069,116.348,67.814z M114.371,66.841h1.984c-0.027-0.299-0.103-0.523-0.228-0.672
			c-0.192-0.232-0.44-0.348-0.746-0.348c-0.276,0-0.509,0.093-0.697,0.278S114.392,66.531,114.371,66.841z"/>
		<path display="inline" d="M117.87,68.958v-3.084h-0.532v-0.468h0.532v-0.378c0-0.239,0.021-0.416,0.064-0.532
			c0.058-0.156,0.16-0.283,0.306-0.379c0.146-0.097,0.351-0.146,0.614-0.146c0.169,0,0.357,0.02,0.562,0.06l-0.09,0.525
			c-0.125-0.022-0.243-0.034-0.354-0.034c-0.183,0-0.312,0.039-0.388,0.117c-0.076,0.078-0.114,0.224-0.114,0.438v0.328h0.692v0.468
			h-0.692v3.084H117.87z"/>
		<path display="inline" d="M119.406,67.182c0-0.658,0.183-1.145,0.548-1.461c0.306-0.263,0.678-0.395,1.117-0.395
			c0.489,0,0.888,0.16,1.198,0.48c0.31,0.32,0.465,0.762,0.465,1.327c0,0.457-0.068,0.816-0.206,1.079s-0.337,0.465-0.599,0.61
			c-0.262,0.145-0.548,0.217-0.858,0.217c-0.497,0-0.899-0.159-1.206-0.478S119.406,67.782,119.406,67.182z M120.024,67.182
			c0,0.455,0.099,0.796,0.298,1.022c0.198,0.227,0.448,0.34,0.749,0.34c0.299,0,0.548-0.114,0.746-0.341
			c0.199-0.228,0.298-0.574,0.298-1.041c0-0.439-0.1-0.772-0.299-0.999c-0.2-0.226-0.448-0.339-0.745-0.339
			c-0.301,0-0.551,0.113-0.749,0.338C120.124,66.387,120.024,66.728,120.024,67.182z"/>
		<path display="inline" d="M123.433,68.958v-3.552h0.542v0.539c0.138-0.252,0.266-0.418,0.383-0.499
			c0.117-0.08,0.246-0.121,0.387-0.121c0.203,0,0.409,0.065,0.619,0.194l-0.208,0.559c-0.147-0.087-0.294-0.13-0.441-0.13
			c-0.132,0-0.25,0.04-0.354,0.119c-0.105,0.079-0.18,0.189-0.224,0.329c-0.067,0.214-0.101,0.448-0.101,0.703v1.86H123.433z"/>
		<path display="inline" d="M128.153,67.814l0.622,0.077c-0.099,0.363-0.28,0.646-0.546,0.846c-0.265,0.201-0.604,0.301-1.017,0.301
			c-0.52,0-0.932-0.16-1.236-0.48c-0.305-0.32-0.457-0.769-0.457-1.346c0-0.598,0.154-1.062,0.461-1.392s0.707-0.495,1.198-0.495
			c0.475,0,0.863,0.162,1.164,0.485c0.301,0.323,0.451,0.778,0.451,1.365c0,0.036-0.001,0.089-0.003,0.16h-2.649
			c0.022,0.391,0.133,0.689,0.331,0.896c0.199,0.208,0.446,0.312,0.743,0.312c0.221,0,0.409-0.058,0.564-0.174
			C127.938,68.254,128.062,68.069,128.153,67.814z M126.176,66.841h1.983c-0.026-0.299-0.103-0.523-0.227-0.672
			c-0.192-0.232-0.44-0.348-0.747-0.348c-0.275,0-0.508,0.093-0.697,0.278S126.196,66.531,126.176,66.841z"/>
		<path display="inline" d="M131.193,67.898l0.595-0.093c0.034,0.238,0.127,0.421,0.28,0.548c0.152,0.127,0.366,0.191,0.64,0.191
			c0.277,0,0.482-0.057,0.616-0.169c0.134-0.113,0.2-0.245,0.2-0.396c0-0.136-0.059-0.243-0.177-0.321
			c-0.083-0.053-0.288-0.122-0.616-0.204c-0.441-0.111-0.747-0.208-0.918-0.289c-0.171-0.082-0.3-0.194-0.388-0.338
			c-0.088-0.144-0.132-0.303-0.132-0.477c0-0.159,0.036-0.305,0.108-0.44c0.072-0.135,0.171-0.247,0.296-0.336
			c0.094-0.069,0.222-0.127,0.383-0.175c0.162-0.048,0.335-0.072,0.521-0.072c0.278,0,0.523,0.041,0.734,0.121
			c0.21,0.08,0.366,0.189,0.467,0.326c0.1,0.137,0.169,0.32,0.207,0.55l-0.589,0.08c-0.026-0.183-0.104-0.326-0.232-0.428
			s-0.31-0.154-0.544-0.154c-0.276,0-0.474,0.046-0.592,0.137s-0.177,0.199-0.177,0.321c0,0.078,0.024,0.148,0.073,0.21
			c0.049,0.065,0.126,0.118,0.23,0.161c0.061,0.022,0.237,0.074,0.532,0.154c0.426,0.114,0.723,0.207,0.892,0.279
			c0.168,0.073,0.3,0.178,0.396,0.316c0.096,0.138,0.144,0.31,0.144,0.515c0,0.201-0.059,0.39-0.176,0.567s-0.286,0.314-0.507,0.411
			c-0.221,0.097-0.471,0.146-0.749,0.146c-0.462,0-0.813-0.096-1.056-0.288C131.414,68.56,131.26,68.275,131.193,67.898z"/>
		<path display="inline" d="M137.177,68.521c-0.223,0.189-0.438,0.323-0.644,0.401c-0.206,0.078-0.428,0.117-0.664,0.117
			c-0.391,0-0.69-0.095-0.9-0.286c-0.209-0.191-0.314-0.435-0.314-0.731c0-0.174,0.04-0.333,0.119-0.477
			c0.079-0.144,0.183-0.259,0.312-0.346c0.128-0.087,0.272-0.153,0.433-0.198c0.118-0.031,0.297-0.061,0.535-0.09
			c0.486-0.058,0.845-0.127,1.074-0.207c0.002-0.083,0.003-0.135,0.003-0.157c0-0.246-0.057-0.418-0.171-0.519
			c-0.153-0.136-0.382-0.204-0.686-0.204c-0.283,0-0.492,0.05-0.627,0.149s-0.234,0.275-0.299,0.527l-0.589-0.081
			c0.053-0.252,0.142-0.455,0.264-0.61c0.123-0.155,0.3-0.274,0.532-0.358c0.231-0.083,0.5-0.125,0.806-0.125
			c0.304,0,0.55,0.036,0.739,0.107c0.189,0.071,0.329,0.161,0.419,0.269c0.089,0.108,0.151,0.245,0.187,0.41
			c0.021,0.103,0.03,0.288,0.03,0.555v0.803c0,0.56,0.013,0.914,0.039,1.062c0.025,0.148,0.076,0.29,0.151,0.426h-0.629
			C137.234,68.833,137.194,68.688,137.177,68.521z M137.127,67.176c-0.219,0.089-0.547,0.165-0.983,0.227
			c-0.248,0.036-0.423,0.076-0.525,0.121c-0.103,0.045-0.182,0.11-0.237,0.196s-0.084,0.181-0.084,0.286
			c0,0.16,0.061,0.294,0.183,0.401c0.121,0.107,0.299,0.16,0.533,0.16c0.232,0,0.438-0.05,0.619-0.152s0.313-0.24,0.397-0.417
			c0.065-0.136,0.098-0.337,0.098-0.602V67.176z"/>
		<path display="inline" d="M139.655,68.958l-1.352-3.552h0.636l0.763,2.127c0.082,0.229,0.158,0.468,0.228,0.716
			c0.054-0.188,0.128-0.413,0.224-0.676l0.79-2.167h0.618l-1.345,3.552H139.655z"/>
		<path display="inline" d="M142.097,64.747v-0.692h0.602v0.692H142.097z M142.097,68.958v-3.552h0.602v3.552H142.097z"/>
		<path display="inline" d="M143.615,68.958v-3.552h0.542v0.505c0.261-0.39,0.638-0.585,1.131-0.585
			c0.214,0,0.411,0.039,0.591,0.116c0.179,0.077,0.313,0.178,0.402,0.303c0.09,0.125,0.152,0.273,0.188,0.445
			c0.022,0.111,0.033,0.307,0.033,0.585v2.184H145.9v-2.161c0-0.246-0.023-0.429-0.07-0.55s-0.13-0.219-0.249-0.291
			c-0.119-0.073-0.26-0.109-0.42-0.109c-0.257,0-0.478,0.082-0.664,0.244c-0.187,0.163-0.279,0.472-0.279,0.927v1.94H143.615z"/>
		<path display="inline" d="M147.314,69.253l0.586,0.087c0.024,0.181,0.093,0.312,0.204,0.395c0.149,0.112,0.354,0.167,0.612,0.167
			c0.278,0,0.493-0.056,0.646-0.167c0.151-0.111,0.254-0.268,0.308-0.468c0.031-0.123,0.046-0.38,0.043-0.772
			c-0.263,0.31-0.591,0.465-0.983,0.465c-0.488,0-0.866-0.176-1.134-0.528c-0.268-0.353-0.401-0.775-0.401-1.268
			c0-0.339,0.062-0.651,0.184-0.938c0.123-0.287,0.301-0.508,0.534-0.664c0.232-0.156,0.507-0.234,0.821-0.234
			c0.419,0,0.765,0.169,1.037,0.509v-0.428h0.555v3.071c0,0.553-0.057,0.945-0.169,1.175c-0.112,0.231-0.291,0.414-0.535,0.547
			s-0.545,0.201-0.901,0.201c-0.424,0-0.766-0.096-1.027-0.286C147.432,69.923,147.306,69.636,147.314,69.253z M147.813,67.119
			c0,0.466,0.092,0.806,0.277,1.021c0.186,0.214,0.417,0.321,0.695,0.321c0.277,0,0.509-0.106,0.696-0.319s0.281-0.547,0.281-1.002
			c0-0.435-0.097-0.763-0.29-0.983c-0.192-0.221-0.425-0.331-0.697-0.331c-0.268,0-0.495,0.109-0.683,0.326
			C147.907,66.368,147.813,66.69,147.813,67.119z"/>
		<path display="inline" d="M151.392,68.958v-0.686h0.687v0.686c0,0.252-0.045,0.456-0.134,0.61c-0.09,0.155-0.231,0.275-0.425,0.36
			l-0.168-0.258c0.127-0.056,0.221-0.138,0.281-0.246c0.061-0.108,0.094-0.264,0.101-0.467H151.392z"/>
		<path display="inline" d="M156.356,68.42l0.087,0.532c-0.17,0.036-0.321,0.054-0.455,0.054c-0.219,0-0.389-0.035-0.509-0.104
			c-0.12-0.069-0.205-0.16-0.254-0.273c-0.049-0.112-0.074-0.35-0.074-0.711v-2.043h-0.441v-0.468h0.441v-0.88l0.6-0.361v1.241
			h0.605v0.468h-0.605v2.077c0,0.172,0.01,0.282,0.031,0.331c0.021,0.049,0.056,0.088,0.104,0.117s0.117,0.043,0.206,0.043
			C156.158,68.443,156.247,68.436,156.356,68.42z"/>
		<path display="inline" d="M159.272,68.958v-0.522c-0.276,0.401-0.652,0.602-1.127,0.602c-0.21,0-0.405-0.04-0.587-0.12
			c-0.182-0.081-0.316-0.181-0.405-0.303c-0.088-0.122-0.149-0.271-0.186-0.447c-0.024-0.118-0.036-0.305-0.036-0.562v-2.201h0.602
			v1.97c0,0.314,0.013,0.526,0.037,0.635c0.038,0.159,0.118,0.283,0.241,0.373c0.122,0.09,0.273,0.136,0.454,0.136
			s0.351-0.046,0.509-0.139c0.158-0.092,0.271-0.218,0.336-0.378c0.066-0.159,0.099-0.391,0.099-0.694v-1.903h0.603v3.552H159.272z"
			/>
		<path display="inline" d="M160.748,68.958v-3.552h0.541v0.539c0.139-0.252,0.267-0.418,0.384-0.499s0.245-0.121,0.386-0.121
			c0.203,0,0.409,0.065,0.619,0.194l-0.207,0.559c-0.147-0.087-0.295-0.13-0.442-0.13c-0.131,0-0.249,0.04-0.354,0.119
			c-0.104,0.079-0.179,0.189-0.224,0.329c-0.067,0.214-0.101,0.448-0.101,0.703v1.86H160.748z"/>
		<path display="inline" d="M163.035,68.958v-3.552h0.542v0.505c0.261-0.39,0.638-0.585,1.131-0.585
			c0.214,0,0.411,0.039,0.591,0.116c0.179,0.077,0.313,0.178,0.402,0.303c0.09,0.125,0.152,0.273,0.188,0.445
			c0.022,0.111,0.033,0.307,0.033,0.585v2.184h-0.602v-2.161c0-0.246-0.023-0.429-0.07-0.55s-0.13-0.219-0.249-0.291
			c-0.119-0.073-0.26-0.109-0.42-0.109c-0.257,0-0.478,0.082-0.664,0.244c-0.187,0.163-0.279,0.472-0.279,0.927v1.94H163.035z"/>
		<path display="inline" d="M86.911,75.403c0-0.657,0.183-1.145,0.548-1.462c0.306-0.263,0.678-0.395,1.117-0.395
			c0.489,0,0.888,0.16,1.198,0.48c0.31,0.319,0.465,0.762,0.465,1.326c0,0.457-0.068,0.816-0.206,1.078
			c-0.137,0.263-0.337,0.466-0.599,0.611c-0.262,0.145-0.548,0.217-0.858,0.217c-0.497,0-0.899-0.159-1.206-0.479
			C87.064,76.462,86.911,76.002,86.911,75.403z M87.529,75.403c0,0.455,0.099,0.796,0.298,1.022
			c0.198,0.226,0.448,0.339,0.749,0.339c0.299,0,0.548-0.113,0.746-0.341c0.199-0.228,0.298-0.574,0.298-1.04
			c0-0.439-0.1-0.772-0.299-0.999c-0.2-0.227-0.448-0.339-0.745-0.339c-0.301,0-0.551,0.112-0.749,0.337
			C87.628,74.608,87.529,74.948,87.529,75.403z"/>
		<path display="inline" d="M91.088,77.179v-3.084h-0.532v-0.469h0.532v-0.377c0-0.239,0.021-0.416,0.064-0.532
			c0.058-0.156,0.16-0.283,0.306-0.379c0.146-0.097,0.351-0.146,0.614-0.146c0.169,0,0.357,0.02,0.562,0.06l-0.09,0.525
			c-0.125-0.022-0.243-0.034-0.354-0.034c-0.183,0-0.312,0.039-0.388,0.117c-0.076,0.078-0.114,0.224-0.114,0.438v0.328h0.692v0.469
			h-0.692v3.084H91.088z"/>
		<path display="inline" d="M92.868,77.179v-3.084h-0.532v-0.469h0.532v-0.377c0-0.239,0.021-0.416,0.064-0.532
			c0.058-0.156,0.16-0.283,0.306-0.379c0.146-0.097,0.351-0.146,0.614-0.146c0.169,0,0.357,0.02,0.562,0.06l-0.09,0.525
			c-0.125-0.022-0.243-0.034-0.354-0.034c-0.183,0-0.312,0.039-0.388,0.117c-0.076,0.078-0.114,0.224-0.114,0.438v0.328h0.692v0.469
			h-0.692v3.084H92.868z"/>
		<path display="inline" d="M96.307,75.403c0-0.657,0.183-1.145,0.548-1.462c0.306-0.263,0.678-0.395,1.117-0.395
			c0.489,0,0.888,0.16,1.198,0.48c0.31,0.319,0.465,0.762,0.465,1.326c0,0.457-0.068,0.816-0.206,1.078
			c-0.137,0.263-0.337,0.466-0.599,0.611c-0.262,0.145-0.548,0.217-0.858,0.217c-0.497,0-0.899-0.159-1.206-0.479
			C96.46,76.462,96.307,76.002,96.307,75.403z M96.925,75.403c0,0.455,0.099,0.796,0.298,1.022c0.198,0.226,0.448,0.339,0.749,0.339
			c0.299,0,0.548-0.113,0.746-0.341c0.199-0.228,0.298-0.574,0.298-1.04c0-0.439-0.1-0.772-0.299-0.999
			c-0.2-0.227-0.448-0.339-0.745-0.339c-0.301,0-0.551,0.112-0.749,0.337C97.024,74.608,96.925,74.948,96.925,75.403z"/>
		<path display="inline" d="M100.334,77.179v-3.553h0.542v0.539c0.138-0.252,0.266-0.418,0.383-0.498
			c0.117-0.08,0.246-0.121,0.387-0.121c0.203,0,0.409,0.064,0.619,0.194l-0.208,0.559c-0.147-0.087-0.294-0.131-0.441-0.131
			c-0.132,0-0.25,0.04-0.354,0.119c-0.105,0.079-0.18,0.188-0.224,0.329c-0.067,0.214-0.101,0.448-0.101,0.703v1.859H100.334z"/>
		<path display="inline" d="M106.831,77.179v-0.448c-0.225,0.353-0.557,0.528-0.994,0.528c-0.283,0-0.543-0.078-0.781-0.234
			c-0.238-0.155-0.422-0.374-0.552-0.653c-0.13-0.28-0.195-0.602-0.195-0.965c0-0.354,0.059-0.677,0.177-0.966
			c0.118-0.288,0.295-0.51,0.532-0.664c0.236-0.153,0.5-0.23,0.792-0.23c0.214,0,0.405,0.045,0.572,0.136
			c0.167,0.091,0.303,0.208,0.408,0.353v-1.759h0.599v4.904H106.831z M104.927,75.407c0,0.454,0.096,0.795,0.288,1.02
			c0.192,0.226,0.418,0.338,0.679,0.338c0.263,0,0.486-0.107,0.67-0.322c0.184-0.216,0.276-0.544,0.276-0.985
			c0-0.486-0.093-0.843-0.281-1.07s-0.418-0.341-0.692-0.341c-0.268,0-0.491,0.108-0.671,0.327
			C105.017,74.591,104.927,74.936,104.927,75.407z"/>
		<path display="inline" d="M110.767,76.036l0.622,0.076c-0.098,0.364-0.28,0.646-0.545,0.847c-0.266,0.2-0.604,0.301-1.017,0.301
			c-0.52,0-0.932-0.16-1.236-0.479c-0.305-0.32-0.457-0.77-0.457-1.347c0-0.598,0.154-1.062,0.461-1.392s0.707-0.495,1.198-0.495
			c0.475,0,0.863,0.162,1.164,0.485c0.301,0.323,0.451,0.778,0.451,1.364c0,0.036-0.001,0.09-0.003,0.161h-2.649
			c0.022,0.39,0.133,0.688,0.331,0.896c0.199,0.207,0.446,0.311,0.743,0.311c0.221,0,0.409-0.058,0.565-0.174
			C110.552,76.474,110.676,76.29,110.767,76.036z M108.79,75.062h1.984c-0.027-0.299-0.103-0.523-0.228-0.673
			c-0.192-0.231-0.44-0.348-0.746-0.348c-0.276,0-0.509,0.093-0.697,0.277C108.915,74.504,108.811,74.751,108.79,75.062z"/>
		<path display="inline" d="M112.132,77.179v-4.904h0.603v4.904H112.132z"/>
		<path display="inline" d="M116.099,76.036l0.622,0.076c-0.098,0.364-0.28,0.646-0.545,0.847c-0.266,0.2-0.604,0.301-1.017,0.301
			c-0.52,0-0.932-0.16-1.236-0.479c-0.305-0.32-0.457-0.77-0.457-1.347c0-0.598,0.154-1.062,0.461-1.392s0.707-0.495,1.198-0.495
			c0.475,0,0.863,0.162,1.164,0.485c0.301,0.323,0.451,0.778,0.451,1.364c0,0.036-0.001,0.09-0.003,0.161h-2.649
			c0.022,0.39,0.133,0.688,0.331,0.896c0.199,0.207,0.446,0.311,0.743,0.311c0.221,0,0.409-0.058,0.565-0.174
			C115.884,76.474,116.008,76.29,116.099,76.036z M114.122,75.062h1.984c-0.027-0.299-0.103-0.523-0.228-0.673
			c-0.192-0.231-0.44-0.348-0.746-0.348c-0.276,0-0.509,0.093-0.697,0.277C114.247,74.504,114.143,74.751,114.122,75.062z"/>
		<path display="inline" d="M118.792,76.641l0.087,0.531c-0.169,0.036-0.321,0.054-0.455,0.054c-0.219,0-0.388-0.034-0.509-0.104
			c-0.12-0.069-0.205-0.16-0.254-0.272c-0.049-0.113-0.074-0.35-0.074-0.711v-2.044h-0.441v-0.469h0.441v-0.879l0.599-0.361v1.241
			h0.605v0.469h-0.605v2.077c0,0.172,0.011,0.282,0.032,0.331c0.021,0.049,0.056,0.088,0.104,0.117
			c0.048,0.029,0.116,0.044,0.206,0.044C118.595,76.665,118.683,76.657,118.792,76.641z"/>
		<path display="inline" d="M121.813,76.036l0.622,0.076c-0.098,0.364-0.28,0.646-0.545,0.847c-0.266,0.2-0.604,0.301-1.017,0.301
			c-0.52,0-0.932-0.16-1.236-0.479c-0.305-0.32-0.457-0.77-0.457-1.347c0-0.598,0.154-1.062,0.461-1.392s0.707-0.495,1.198-0.495
			c0.475,0,0.863,0.162,1.164,0.485c0.301,0.323,0.451,0.778,0.451,1.364c0,0.036-0.001,0.09-0.003,0.161h-2.649
			c0.022,0.39,0.133,0.688,0.331,0.896c0.199,0.207,0.446,0.311,0.743,0.311c0.221,0,0.409-0.058,0.565-0.174
			C121.598,76.474,121.722,76.29,121.813,76.036z M119.836,75.062h1.984c-0.027-0.299-0.103-0.523-0.228-0.673
			c-0.192-0.231-0.44-0.348-0.746-0.348c-0.276,0-0.509,0.093-0.697,0.277C119.96,74.504,119.856,74.751,119.836,75.062z"/>
		<path display="inline" d="M124.984,77.473l0.585,0.087c0.024,0.181,0.092,0.312,0.204,0.396c0.149,0.111,0.354,0.167,0.612,0.167
			c0.279,0,0.494-0.056,0.646-0.167c0.151-0.112,0.254-0.268,0.308-0.469c0.03-0.122,0.046-0.38,0.044-0.772
			c-0.264,0.31-0.592,0.465-0.984,0.465c-0.489,0-0.867-0.176-1.134-0.528s-0.401-0.775-0.401-1.268
			c0-0.339,0.062-0.652,0.184-0.938c0.123-0.287,0.3-0.508,0.534-0.664c0.233-0.156,0.506-0.234,0.821-0.234
			c0.419,0,0.765,0.17,1.038,0.509v-0.429h0.555v3.071c0,0.553-0.057,0.944-0.169,1.176c-0.112,0.23-0.291,0.413-0.535,0.547
			s-0.544,0.2-0.901,0.2c-0.424,0-0.766-0.095-1.027-0.286C125.101,78.144,124.975,77.857,124.984,77.473z M125.482,75.339
			c0,0.466,0.093,0.807,0.278,1.021s0.417,0.321,0.696,0.321c0.276,0,0.508-0.106,0.696-0.319c0.188-0.214,0.28-0.548,0.28-1.002
			c0-0.436-0.096-0.763-0.289-0.983c-0.192-0.221-0.425-0.331-0.697-0.331c-0.268,0-0.495,0.108-0.682,0.325
			C125.576,74.588,125.482,74.912,125.482,75.339z"/>
		<path display="inline" d="M131.231,77.179v-0.521c-0.276,0.401-0.652,0.602-1.127,0.602c-0.21,0-0.405-0.04-0.587-0.12
			s-0.316-0.182-0.405-0.303c-0.088-0.122-0.149-0.271-0.186-0.446c-0.024-0.118-0.036-0.306-0.036-0.562v-2.201h0.602v1.971
			c0,0.314,0.013,0.526,0.037,0.636c0.038,0.158,0.118,0.282,0.241,0.373c0.122,0.09,0.273,0.135,0.454,0.135
			s0.351-0.046,0.509-0.139s0.271-0.219,0.336-0.378c0.066-0.159,0.099-0.391,0.099-0.694v-1.903h0.603v3.553H131.231z"/>
		<path display="inline" d="M132.717,72.968v-0.692h0.602v0.692H132.717z M132.717,77.179v-3.553h0.602v3.553H132.717z"/>
		<path display="inline" d="M136.54,77.179v-0.448c-0.225,0.353-0.556,0.528-0.993,0.528c-0.283,0-0.543-0.078-0.781-0.234
			c-0.237-0.155-0.421-0.374-0.552-0.653c-0.13-0.28-0.195-0.602-0.195-0.965c0-0.354,0.059-0.677,0.177-0.966
			c0.118-0.288,0.296-0.51,0.532-0.664c0.236-0.153,0.501-0.23,0.793-0.23c0.214,0,0.404,0.045,0.571,0.136
			c0.168,0.091,0.304,0.208,0.408,0.353v-1.759h0.599v4.904H136.54z M134.637,75.407c0,0.454,0.097,0.795,0.288,1.02
			c0.191,0.226,0.418,0.338,0.679,0.338c0.264,0,0.487-0.107,0.671-0.322c0.185-0.216,0.276-0.544,0.276-0.985
			c0-0.486-0.094-0.843-0.281-1.07s-0.418-0.341-0.692-0.341c-0.268,0-0.491,0.108-0.671,0.327S134.637,74.936,134.637,75.407z"/>
		<path display="inline" d="M140.478,76.036l0.622,0.076c-0.099,0.364-0.28,0.646-0.546,0.847c-0.265,0.2-0.604,0.301-1.017,0.301
			c-0.52,0-0.932-0.16-1.236-0.479c-0.304-0.32-0.456-0.77-0.456-1.347c0-0.598,0.153-1.062,0.462-1.392
			c0.308-0.33,0.706-0.495,1.197-0.495c0.475,0,0.863,0.162,1.164,0.485s0.451,0.778,0.451,1.364c0,0.036-0.001,0.09-0.003,0.161
			h-2.649c0.022,0.39,0.133,0.688,0.331,0.896c0.198,0.207,0.446,0.311,0.743,0.311c0.221,0,0.409-0.058,0.564-0.174
			C140.262,76.474,140.386,76.29,140.478,76.036z M138.5,75.062h1.983c-0.026-0.299-0.103-0.523-0.227-0.673
			c-0.192-0.231-0.44-0.348-0.746-0.348c-0.276,0-0.51,0.093-0.697,0.277C138.625,74.504,138.521,74.751,138.5,75.062z"/>
		<path display="inline" d="M141.614,76.119l0.595-0.094c0.034,0.239,0.127,0.422,0.28,0.549c0.152,0.127,0.366,0.19,0.64,0.19
			c0.277,0,0.482-0.056,0.616-0.169c0.134-0.112,0.2-0.244,0.2-0.396c0-0.136-0.059-0.242-0.177-0.32
			c-0.083-0.054-0.288-0.122-0.616-0.204c-0.441-0.112-0.747-0.208-0.918-0.29c-0.171-0.081-0.3-0.193-0.388-0.338
			c-0.088-0.144-0.132-0.303-0.132-0.477c0-0.158,0.036-0.305,0.108-0.439s0.171-0.247,0.296-0.336
			c0.094-0.069,0.222-0.128,0.383-0.176c0.162-0.049,0.335-0.072,0.521-0.072c0.278,0,0.523,0.041,0.734,0.121
			c0.21,0.08,0.366,0.188,0.467,0.325c0.1,0.138,0.169,0.321,0.207,0.551l-0.589,0.08c-0.026-0.183-0.104-0.325-0.232-0.428
			s-0.31-0.154-0.544-0.154c-0.276,0-0.474,0.046-0.592,0.138c-0.118,0.091-0.177,0.198-0.177,0.32c0,0.078,0.024,0.148,0.073,0.211
			c0.049,0.064,0.126,0.118,0.23,0.161c0.061,0.021,0.237,0.073,0.532,0.153c0.426,0.114,0.723,0.207,0.892,0.279
			c0.168,0.072,0.3,0.178,0.396,0.316c0.096,0.138,0.144,0.31,0.144,0.515c0,0.201-0.059,0.39-0.176,0.567
			c-0.117,0.177-0.286,0.314-0.507,0.411c-0.221,0.098-0.471,0.146-0.749,0.146c-0.462,0-0.813-0.096-1.056-0.287
			C141.835,76.78,141.681,76.496,141.614,76.119z"/>
		<path display="inline" d="M147.17,77.179v-4.904h0.602v4.904H147.17z"/>
		<path display="inline" d="M151.022,76.741c-0.223,0.189-0.438,0.323-0.644,0.401s-0.428,0.117-0.664,0.117
			c-0.391,0-0.69-0.095-0.9-0.286c-0.209-0.19-0.314-0.434-0.314-0.73c0-0.174,0.04-0.333,0.119-0.477s0.183-0.26,0.312-0.347
			c0.128-0.087,0.272-0.152,0.433-0.197c0.118-0.031,0.297-0.062,0.535-0.09c0.486-0.059,0.845-0.127,1.074-0.208
			c0.002-0.082,0.003-0.135,0.003-0.157c0-0.245-0.057-0.418-0.171-0.519c-0.153-0.136-0.382-0.203-0.686-0.203
			c-0.283,0-0.492,0.049-0.627,0.148s-0.234,0.274-0.299,0.526l-0.589-0.08c0.053-0.252,0.142-0.455,0.264-0.61
			c0.123-0.155,0.3-0.274,0.532-0.358c0.231-0.083,0.5-0.125,0.806-0.125c0.304,0,0.55,0.035,0.739,0.107
			c0.189,0.071,0.329,0.161,0.419,0.27c0.089,0.107,0.151,0.244,0.187,0.409c0.021,0.103,0.03,0.288,0.03,0.556v0.803
			c0,0.56,0.013,0.913,0.039,1.062c0.025,0.148,0.076,0.291,0.151,0.427h-0.629C151.08,77.054,151.04,76.909,151.022,76.741z
			 M150.973,75.396c-0.219,0.09-0.547,0.165-0.983,0.228c-0.248,0.036-0.423,0.076-0.525,0.121
			c-0.103,0.044-0.182,0.109-0.237,0.195s-0.084,0.181-0.084,0.286c0,0.16,0.061,0.294,0.183,0.401
			c0.121,0.106,0.299,0.16,0.533,0.16c0.232,0,0.438-0.051,0.619-0.152c0.181-0.101,0.313-0.24,0.397-0.416
			c0.065-0.136,0.098-0.337,0.098-0.603V75.396z"/>
		<path display="inline" d="M152.487,78.547l-0.066-0.565c0.131,0.036,0.246,0.054,0.344,0.054c0.134,0,0.241-0.022,0.321-0.067
			c0.08-0.044,0.146-0.106,0.197-0.187c0.038-0.061,0.1-0.21,0.185-0.448c0.011-0.034,0.028-0.083,0.053-0.147l-1.348-3.56h0.649
			l0.739,2.058c0.096,0.261,0.182,0.535,0.257,0.823c0.069-0.277,0.152-0.547,0.248-0.81l0.759-2.071h0.603l-1.352,3.613
			c-0.145,0.39-0.258,0.658-0.338,0.806c-0.107,0.198-0.229,0.344-0.368,0.437c-0.138,0.093-0.303,0.139-0.495,0.139
			C152.76,78.621,152.63,78.596,152.487,78.547z"/>
		<path display="inline" d="M158.371,76.036l0.622,0.076c-0.099,0.364-0.28,0.646-0.546,0.847c-0.265,0.2-0.604,0.301-1.017,0.301
			c-0.52,0-0.932-0.16-1.236-0.479c-0.304-0.32-0.456-0.77-0.456-1.347c0-0.598,0.153-1.062,0.462-1.392
			c0.308-0.33,0.706-0.495,1.197-0.495c0.475,0,0.863,0.162,1.164,0.485s0.451,0.778,0.451,1.364c0,0.036-0.001,0.09-0.003,0.161
			h-2.649c0.022,0.39,0.133,0.688,0.331,0.896c0.198,0.207,0.446,0.311,0.743,0.311c0.221,0,0.409-0.058,0.564-0.174
			C158.155,76.474,158.279,76.29,158.371,76.036z M156.394,75.062h1.983c-0.026-0.299-0.103-0.523-0.227-0.673
			c-0.192-0.231-0.44-0.348-0.746-0.348c-0.276,0-0.51,0.093-0.697,0.277C156.519,74.504,156.414,74.751,156.394,75.062z"/>
		<path display="inline" d="M159.742,77.179v-3.553h0.541v0.539c0.139-0.252,0.267-0.418,0.384-0.498s0.245-0.121,0.386-0.121
			c0.203,0,0.409,0.064,0.619,0.194l-0.207,0.559c-0.147-0.087-0.295-0.131-0.442-0.131c-0.131,0-0.249,0.04-0.354,0.119
			c-0.104,0.079-0.179,0.188-0.224,0.329c-0.067,0.214-0.101,0.448-0.101,0.703v1.859H159.742z"/>
		<path display="inline" d="M161.822,77.179v-0.686h0.686v0.686H161.822z"/>
		<path display="inline" d="M163.317,73.175l0.154-0.475c0.354,0.125,0.612,0.233,0.772,0.325c-0.042-0.404-0.064-0.682-0.066-0.833
			h0.484c-0.007,0.221-0.032,0.497-0.077,0.83c0.23-0.116,0.493-0.223,0.79-0.321l0.153,0.475c-0.283,0.094-0.561,0.156-0.833,0.188
			c0.137,0.118,0.328,0.328,0.576,0.632l-0.401,0.284c-0.13-0.176-0.282-0.416-0.459-0.719c-0.165,0.314-0.31,0.554-0.435,0.719
			l-0.395-0.284c0.259-0.319,0.443-0.529,0.555-0.632C163.85,73.307,163.576,73.245,163.317,73.175z"/>
	</g>
	<g display="none">
		<path display="inline" d="M99.604,53.46l0.719,0.182c-0.151,0.592-0.422,1.043-0.814,1.354c-0.392,0.311-0.871,0.466-1.437,0.466
			c-0.585,0-1.062-0.12-1.429-0.358c-0.367-0.239-0.646-0.585-0.838-1.039s-0.287-0.94-0.287-1.46c0-0.567,0.108-1.062,0.324-1.484
			c0.216-0.423,0.524-0.743,0.923-0.963c0.399-0.219,0.838-0.329,1.318-0.329c0.543,0,1,0.139,1.372,0.417
			c0.37,0.277,0.629,0.667,0.774,1.17l-0.711,0.167c-0.126-0.396-0.309-0.685-0.548-0.866c-0.239-0.181-0.541-0.271-0.903-0.271
			c-0.417,0-0.766,0.1-1.046,0.301s-0.477,0.47-0.59,0.808c-0.114,0.338-0.17,0.687-0.17,1.046c0,0.463,0.067,0.867,0.202,1.213
			c0.135,0.345,0.344,0.604,0.628,0.774s0.592,0.256,0.923,0.256c0.403,0,0.744-0.116,1.023-0.349S99.506,53.918,99.604,53.46z"/>
		<path display="inline" d="M101.195,55.369v-5.445h1.083l1.293,3.857c0.119,0.359,0.206,0.628,0.261,0.806
			c0.062-0.198,0.159-0.489,0.291-0.874l1.308-3.79h0.968v5.445h-0.695v-4.555l-1.586,4.555h-0.649l-1.578-4.633v4.633H101.195z"/>
		<path display="inline" d="M109.095,55.369v-2.307l-2.102-3.139h0.877l1.073,1.642c0.201,0.306,0.386,0.611,0.556,0.917
			c0.164-0.283,0.363-0.602,0.598-0.958l1.049-1.601h0.84l-2.172,3.139v2.307H109.095z"/>
		<path display="inline" d="M112.605,55.369v-5.445h0.719v2.697l2.702-2.697h0.978l-2.28,2.203l2.381,3.243h-0.951l-1.936-2.755
			l-0.895,0.864v1.891H112.605z"/>
		<path display="inline" d="M130.136,53.932l0.671-0.086c0.079,0.376,0.208,0.647,0.392,0.813s0.408,0.249,0.675,0.249
			c0.316,0,0.583-0.109,0.8-0.326c0.214-0.218,0.321-0.487,0.321-0.809c0-0.306-0.101-0.559-0.3-0.758
			c-0.2-0.199-0.455-0.298-0.764-0.298c-0.128,0-0.286,0.025-0.475,0.074l0.075-0.586c0.046,0.005,0.08,0.007,0.108,0.007
			c0.284,0,0.542-0.074,0.771-0.223c0.229-0.149,0.341-0.379,0.341-0.689c0-0.246-0.083-0.45-0.249-0.611
			c-0.164-0.162-0.38-0.242-0.643-0.242c-0.258,0-0.475,0.082-0.649,0.246c-0.171,0.164-0.283,0.41-0.334,0.738l-0.671-0.117
			c0.081-0.449,0.268-0.797,0.559-1.044c0.288-0.247,0.65-0.37,1.08-0.37c0.299,0,0.571,0.064,0.821,0.191s0.444,0.302,0.574,0.522
			c0.133,0.221,0.199,0.455,0.199,0.703c0,0.235-0.062,0.45-0.188,0.643c-0.128,0.193-0.315,0.347-0.562,0.461
			c0.321,0.074,0.571,0.228,0.75,0.462c0.179,0.233,0.267,0.526,0.267,0.877c0,0.475-0.175,0.877-0.521,1.208
			c-0.347,0.331-0.787,0.496-1.316,0.496c-0.479,0-0.875-0.142-1.191-0.426C130.36,54.752,130.182,54.384,130.136,53.932z"/>
		<path display="inline" d="M134.36,52.684c0-0.644,0.067-1.163,0.2-1.557c0.131-0.394,0.329-0.697,0.592-0.908
			c0.26-0.212,0.591-0.318,0.987-0.318c0.292,0,0.55,0.059,0.771,0.176c0.221,0.118,0.403,0.288,0.545,0.509
			c0.143,0.222,0.255,0.492,0.338,0.81c0.08,0.318,0.121,0.748,0.121,1.288c0,0.639-0.063,1.156-0.196,1.549
			c-0.13,0.394-0.329,0.698-0.59,0.911c-0.26,0.213-0.592,0.319-0.989,0.319c-0.525,0-0.94-0.187-1.238-0.561
			C134.54,54.446,134.36,53.707,134.36,52.684z M135.048,52.686c0,0.897,0.104,1.494,0.316,1.788
			c0.209,0.295,0.467,0.442,0.775,0.442c0.306,0,0.566-0.148,0.775-0.444c0.208-0.296,0.312-0.892,0.312-1.787
			c0-0.897-0.104-1.493-0.312-1.788c-0.209-0.295-0.471-0.442-0.783-0.442c-0.309,0-0.555,0.13-0.738,0.39
			C135.162,51.177,135.048,51.791,135.048,52.686z"/>
		<path display="inline" d="M138.594,52.684c0-0.644,0.067-1.163,0.2-1.557c0.133-0.394,0.329-0.697,0.592-0.908
			c0.262-0.212,0.591-0.318,0.987-0.318c0.292,0,0.55,0.059,0.771,0.176c0.222,0.118,0.404,0.288,0.546,0.509
			c0.143,0.222,0.255,0.492,0.338,0.81c0.08,0.318,0.121,0.748,0.121,1.288c0,0.639-0.063,1.156-0.196,1.549
			c-0.132,0.394-0.329,0.698-0.588,0.911c-0.262,0.213-0.592,0.319-0.991,0.319c-0.525,0-0.938-0.187-1.24-0.561
			C138.773,54.446,138.594,53.707,138.594,52.684z M139.281,52.686c0,0.897,0.104,1.494,0.316,1.788
			c0.209,0.295,0.467,0.442,0.775,0.442c0.308,0,0.563-0.148,0.775-0.444c0.208-0.296,0.312-0.892,0.312-1.787
			c0-0.897-0.104-1.493-0.312-1.788c-0.209-0.295-0.471-0.442-0.783-0.442c-0.309,0-0.555,0.13-0.738,0.39
			C139.397,51.177,139.281,51.791,139.281,52.686z"/>
		<path display="inline" d="M145.217,55.369v-5.445h1.875c0.423,0,0.747,0.026,0.969,0.078c0.312,0.072,0.579,0.202,0.8,0.39
			c0.287,0.242,0.5,0.553,0.642,0.93c0.143,0.378,0.215,0.809,0.215,1.294c0,0.414-0.048,0.78-0.144,1.1
			c-0.097,0.319-0.221,0.584-0.371,0.793c-0.153,0.209-0.316,0.374-0.496,0.494s-0.396,0.211-0.649,0.273
			c-0.254,0.062-0.546,0.093-0.875,0.093H145.217z M145.936,54.729h1.163c0.357,0,0.642-0.034,0.846-0.1
			c0.204-0.067,0.366-0.161,0.487-0.283c0.171-0.171,0.304-0.401,0.399-0.69c0.097-0.289,0.143-0.639,0.143-1.05
			c0-0.57-0.092-1.008-0.279-1.314s-0.415-0.511-0.683-0.615c-0.192-0.075-0.505-0.112-0.931-0.112h-1.146V54.729z"/>
		<path display="inline" d="M150.714,55.369v-5.445h2.056c0.362,0,0.641,0.017,0.832,0.052c0.268,0.044,0.492,0.129,0.672,0.254
			c0.183,0.125,0.328,0.3,0.438,0.524c0.109,0.225,0.166,0.473,0.166,0.742c0,0.462-0.148,0.854-0.442,1.174
			c-0.295,0.32-0.831,0.48-1.604,0.48h-1.399v2.219H150.714z M151.432,52.51h1.412c0.468,0,0.8-0.086,0.996-0.26
			s0.296-0.417,0.296-0.731c0-0.228-0.059-0.422-0.175-0.584s-0.267-0.27-0.457-0.321c-0.122-0.032-0.347-0.048-0.673-0.048h-1.399
			V52.51z"/>
		<path display="inline" d="M155.915,55.369v-5.445h0.718v5.445H155.915z"/>
	</g>
	<g display="none">
		<g display="inline">
			<g>
				<defs>
					<filter id="Adobe_OpacityMaskFilter" filterUnits="userSpaceOnUse" x="114.241" y="92.671" width="24.599" height="7.635">
						<feColorMatrix  type="matrix" values="1 0 0 0 0  0 1 0 0 0  0 0 1 0 0  0 0 0 1 0"/>
					</filter>
				</defs>
				<mask maskUnits="userSpaceOnUse" x="114.241" y="92.671" width="24.599" height="7.635" id="SVGID_1_">
					<g filter="url(#Adobe_OpacityMaskFilter)">
						<linearGradient id="SVGID_2_" gradientUnits="userSpaceOnUse" x1="122.4731" y1="100.1851" x2="126.8666" y2="96.8423">
							<stop  offset="0" style="stop-color:#000000"/>
							<stop  offset="0.0074" style="stop-color:#090909"/>
							<stop  offset="0.0477" style="stop-color:#373737"/>
							<stop  offset="0.0931" style="stop-color:#626262"/>
							<stop  offset="0.1419" style="stop-color:#888888"/>
							<stop  offset="0.195" style="stop-color:#A8A8A8"/>
							<stop  offset="0.2537" style="stop-color:#C4C4C4"/>
							<stop  offset="0.32" style="stop-color:#DADADA"/>
							<stop  offset="0.3974" style="stop-color:#EBEBEB"/>
							<stop  offset="0.4931" style="stop-color:#F6F6F6"/>
							<stop  offset="0.6274" style="stop-color:#FDFDFD"/>
							<stop  offset="1" style="stop-color:#FFFFFF"/>
						</linearGradient>
						<path fill="url(#SVGID_2_)" d="M129.883,92.704c-6.173-0.334-12.261,1.91-15.642,5.963c1.336,0.021,2.522,0.659,3.277,1.64
							c3.058-3.798,8.923-5.775,14.11-5.076c1.467,0.199,2.795,0.528,3.987,0.969c1.028-0.198,2.108-0.286,3.225-0.249
							C136.286,94.089,133.169,92.881,129.883,92.704z"/>
					</g>
				</mask>
				<linearGradient id="SVGID_3_" gradientUnits="userSpaceOnUse" x1="122.4731" y1="100.1851" x2="126.8666" y2="96.8423">
					<stop  offset="0" style="stop-color:#F5BECC"/>
					<stop  offset="0.0593" style="stop-color:#F3B4C5"/>
					<stop  offset="0.5204" style="stop-color:#E96F98"/>
					<stop  offset="0.8442" style="stop-color:#E4357F"/>
					<stop  offset="1" style="stop-color:#E20177"/>
				</linearGradient>
				<path mask="url(#SVGID_1_)" fill="url(#SVGID_3_)" d="M129.883,92.704c-6.173-0.334-12.261,1.91-15.642,5.963
					c1.336,0.021,2.522,0.659,3.277,1.64c3.058-3.798,8.923-5.775,14.11-5.076c1.467,0.199,2.795,0.528,3.987,0.969
					c1.028-0.198,2.108-0.286,3.225-0.249C136.286,94.089,133.169,92.881,129.883,92.704z"/>
				<linearGradient id="SVGID_4_" gradientUnits="userSpaceOnUse" x1="110.1138" y1="97.8931" x2="138.9043" y2="97.8931">
					<stop  offset="0" style="stop-color:#FDEDF4"/>
					<stop  offset="0.0412" style="stop-color:#FCE7F1"/>
					<stop  offset="0.1001" style="stop-color:#FAD9E8"/>
					<stop  offset="0.1697" style="stop-color:#F7C1D9"/>
					<stop  offset="0.2474" style="stop-color:#F39FC5"/>
					<stop  offset="0.3308" style="stop-color:#EE76AD"/>
					<stop  offset="0.3755" style="stop-color:#EC58A0"/>
					<stop  offset="1" style="stop-color:#EB4498"/>
				</linearGradient>
				<path fill="url(#SVGID_4_)" d="M110.118,103.964c-0.002,0.015-0.002,0.027-0.004,0.042l0.021,0.003
					c-0.005-0.019-0.011-0.035-0.015-0.052C110.119,103.959,110.119,103.962,110.118,103.964z M128.944,91.812
					c-7.209-0.408-13.572,2.646-16.801,7.369c0.603-0.329,1.293-0.517,2.03-0.517c0.802,0,1.552,0.223,2.19,0.608
					c3.478-3.939,8.888-5.648,14.54-4.916c1.629,0.211,3.102,0.553,4.43,1.004c1.141-0.189,2.337-0.269,3.572-0.223
					C136.057,93.254,132.59,92.02,128.944,91.812z"/>
				<g>
					<defs>
						
							<filter id="Adobe_OpacityMaskFilter_1_" filterUnits="userSpaceOnUse" x="102.555" y="89.918" width="27.914" height="15.762">
							<feColorMatrix  type="matrix" values="1 0 0 0 0  0 1 0 0 0  0 0 1 0 0  0 0 0 1 0"/>
						</filter>
					</defs>
					<mask maskUnits="userSpaceOnUse" x="102.555" y="89.918" width="27.914" height="15.762" id="SVGID_5_">
						<g filter="url(#Adobe_OpacityMaskFilter_1_)">
							<linearGradient id="SVGID_6_" gradientUnits="userSpaceOnUse" x1="115.9141" y1="101.3638" x2="119.1791" y2="93.6308">
								<stop  offset="0" style="stop-color:#000000"/>
								<stop  offset="0.0049" style="stop-color:#040404"/>
								<stop  offset="0.0642" style="stop-color:#343434"/>
								<stop  offset="0.1231" style="stop-color:#5C5C5C"/>
								<stop  offset="0.1808" style="stop-color:#7B7B7B"/>
								<stop  offset="0.2368" style="stop-color:#919191"/>
								<stop  offset="0.2903" style="stop-color:#9E9E9E"/>
								<stop  offset="0.3388" style="stop-color:#A3A3A3"/>
								<stop  offset="0.4962" style="stop-color:#A6A6A6"/>
								<stop  offset="0.629" style="stop-color:#B1B1B1"/>
								<stop  offset="0.7529" style="stop-color:#C2C2C2"/>
								<stop  offset="0.8713" style="stop-color:#DBDBDB"/>
								<stop  offset="0.985" style="stop-color:#FAFAFA"/>
								<stop  offset="1" style="stop-color:#FFFFFF"/>
							</linearGradient>
							<path fill="url(#SVGID_6_)" d="M102.556,105.527c0.71-8.469,7.189-15.354,15.325-15.603
								c4.909-0.149,9.626,2.603,12.588,6.763c-0.333,0.293-0.634-0.621-0.933-0.291c-2.121-2.798-5.364-3.451-9.796-3.742
								c-6.63-0.435-12.985,5.504-13.561,13.026l-3.624-0.105C102.555,105.56,102.555,105.543,102.556,105.527z"/>
						</g>
					</mask>
					<linearGradient id="SVGID_7_" gradientUnits="userSpaceOnUse" x1="115.9141" y1="101.3638" x2="119.1791" y2="93.6308">
						<stop  offset="0" style="stop-color:#FFFFFF"/>
						<stop  offset="0.0421" style="stop-color:#FFFFFB"/>
						<stop  offset="0.086" style="stop-color:#FFFDEE"/>
						<stop  offset="0.1308" style="stop-color:#FFFBD9"/>
						<stop  offset="0.1761" style="stop-color:#FFF8BC"/>
						<stop  offset="0.2219" style="stop-color:#FFF496"/>
						<stop  offset="0.2681" style="stop-color:#FFEE68"/>
						<stop  offset="0.3137" style="stop-color:#FFE933"/>
						<stop  offset="0.3388" style="stop-color:#FFE512"/>
						<stop  offset="0.5003" style="stop-color:#FFE215"/>
						<stop  offset="0.6366" style="stop-color:#FFDB1D"/>
						<stop  offset="0.7637" style="stop-color:#FFCF26"/>
						<stop  offset="0.8845" style="stop-color:#FEBD2E"/>
						<stop  offset="1" style="stop-color:#FAA634"/>
					</linearGradient>
					<path mask="url(#SVGID_5_)" fill="url(#SVGID_7_)" d="M102.556,105.527c0.71-8.469,7.189-15.354,15.325-15.603
						c4.909-0.149,9.626,2.603,12.588,6.763c-0.333,0.293-0.634-0.621-0.933-0.291c-2.121-2.798-5.364-3.451-9.796-3.742
						c-6.63-0.435-12.985,5.504-13.561,13.026l-3.624-0.105C102.555,105.56,102.555,105.543,102.556,105.527z"/>
					<defs>
						<filter id="Adobe_OpacityMaskFilter_2_" filterUnits="userSpaceOnUse" x="97.234" y="89.559" width="34.527" height="15.936">
							<feColorMatrix  type="matrix" values="1 0 0 0 0  0 1 0 0 0  0 0 1 0 0  0 0 0 1 0"/>
						</filter>
					</defs>
					<mask maskUnits="userSpaceOnUse" x="97.234" y="89.559" width="34.527" height="15.936" id="SVGID_8_">
						<g filter="url(#Adobe_OpacityMaskFilter_2_)">
							<linearGradient id="SVGID_9_" gradientUnits="userSpaceOnUse" x1="114.5352" y1="100.7085" x2="117.3718" y2="84.6342">
								<stop  offset="0" style="stop-color:#000000"/>
								<stop  offset="0.0029" style="stop-color:#131314"/>
								<stop  offset="0.0368" style="stop-color:#5D5E60"/>
								<stop  offset="0.0729" style="stop-color:#828386"/>
								<stop  offset="0.1105" style="stop-color:#A0A2A5"/>
								<stop  offset="0.1499" style="stop-color:#BCBEC0"/>
								<stop  offset="0.1916" style="stop-color:#D3D5D6"/>
								<stop  offset="0.2364" style="stop-color:#E5E6E7"/>
								<stop  offset="0.2858" style="stop-color:#F2F2F3"/>
								<stop  offset="0.3433" style="stop-color:#FBFBFB"/>
								<stop  offset="0.4286" style="stop-color:#FFFFFF"/>
								<stop  offset="0.8" style="stop-color:#FFFFFF"/>
								<stop  offset="1" style="stop-color:#FFFFFF"/>
							</linearGradient>
							<path fill="url(#SVGID_9_)" d="M97.234,105.342c0.871-8.565,8.809-15.526,18.776-15.778c6.016-0.15,12.117,2.96,15.75,7.166
								c-0.409,0.296-0.8,0.612-1.163,0.946c-2.6-2.829-6.878-5.058-12.31-5.353c-8.123-0.438-15.909,5.564-16.614,13.171
								l-4.44-0.105C97.234,105.373,97.233,105.357,97.234,105.342z"/>
						</g>
					</mask>
					<linearGradient id="SVGID_10_" gradientUnits="userSpaceOnUse" x1="114.5352" y1="100.7085" x2="117.3718" y2="84.6342">
						<stop  offset="0" style="stop-color:#FFFFFF"/>
						<stop  offset="6.428083e-04" style="stop-color:#FFFFFE"/>
						<stop  offset="0.031" style="stop-color:#FFF9CD"/>
						<stop  offset="0.0627" style="stop-color:#FFF5A1"/>
						<stop  offset="0.097" style="stop-color:#FFF07B"/>
						<stop  offset="0.1333" style="stop-color:#FFED5A"/>
						<stop  offset="0.1722" style="stop-color:#FFEA40"/>
						<stop  offset="0.2147" style="stop-color:#FFE82B"/>
						<stop  offset="0.2627" style="stop-color:#FFE61D"/>
						<stop  offset="0.3208" style="stop-color:#FFE515"/>
						<stop  offset="0.4163" style="stop-color:#FFE512"/>
						<stop  offset="0.8" style="stop-color:#FCC93C"/>
						<stop  offset="1" style="stop-color:#F99D27"/>
					</linearGradient>
					<path mask="url(#SVGID_8_)" fill="url(#SVGID_10_)" d="M97.234,105.342c0.871-8.565,8.809-15.526,18.776-15.778
						c6.016-0.15,12.117,2.96,15.75,7.166c-0.409,0.296-0.8,0.612-1.163,0.946c-2.6-2.829-6.878-5.058-12.31-5.353
						c-8.123-0.438-15.909,5.564-16.614,13.171l-4.44-0.105C97.234,105.373,97.233,105.357,97.234,105.342z"/>
				</g>
				<linearGradient id="SVGID_11_" gradientUnits="userSpaceOnUse" x1="130.624" y1="97.2153" x2="149.1914" y2="97.2153">
					<stop  offset="0" style="stop-color:#CCE1F4"/>
					<stop  offset="0.0493" style="stop-color:#C3D9F0"/>
					<stop  offset="0.1251" style="stop-color:#AAC8E6"/>
					<stop  offset="0.2179" style="stop-color:#86AFD8"/>
					<stop  offset="0.3242" style="stop-color:#5693C7"/>
					<stop  offset="0.4403" style="stop-color:#0076B4"/>
					<stop  offset="0.4776" style="stop-color:#006DAE"/>
					<stop  offset="1" style="stop-color:#0069AA"/>
				</linearGradient>
				<path fill="url(#SVGID_11_)" d="M139.812,94.921c-0.122,0.003-0.242,0.007-0.363,0.012c-1.009,0.044-1.979,0.188-2.892,0.418
					c-1.372,0.346-2.621,0.886-3.684,1.574c-0.333,0.215-0.646,0.443-0.941,0.686c-0.492,0.404-0.93,0.844-1.308,1.312h2.311
					c0.022-0.027,0.047-0.053,0.072-0.078c0.262-0.269,0.55-0.523,0.857-0.764c1.271-1,2.896-1.748,4.625-2.092
					c0.759-0.152,1.537-0.226,2.312-0.209c0.076,0.002,0.154,0.005,0.234,0.008c3.917,0.184,6.666,1.69,8.155,3.724v-0.738
					C147.187,96.449,143.581,94.849,139.812,94.921z"/>
				<linearGradient id="SVGID_12_" gradientUnits="userSpaceOnUse" x1="129.4316" y1="96.6548" x2="149.1914" y2="96.6548">
					<stop  offset="0" style="stop-color:#E7F0FA"/>
					<stop  offset="0.059" style="stop-color:#DFEBF8"/>
					<stop  offset="0.1477" style="stop-color:#CAE0F4"/>
					<stop  offset="0.2549" style="stop-color:#A7CEED"/>
					<stop  offset="0.3757" style="stop-color:#76B8E5"/>
					<stop  offset="0.4615" style="stop-color:#49A9DF"/>
					<stop  offset="1" style="stop-color:#3CA6DD"/>
				</linearGradient>
				<path fill="url(#SVGID_12_)" d="M149.19,98.31c-2.068-2.358-5.859-3.993-9.808-3.921c-0.126,0.003-0.256,0.007-0.381,0.013
					c-1.046,0.043-2.054,0.188-3.003,0.417c-1.426,0.347-2.722,0.887-3.829,1.575c-0.343,0.215-0.671,0.443-0.976,0.686
					c-0.7,0.552-1.293,1.173-1.763,1.844h2.321c0.174-0.21,0.357-0.414,0.559-0.611c0.274-0.267,0.57-0.521,0.891-0.764
					c1.321-0.999,3.009-1.747,4.805-2.092c0.787-0.15,1.596-0.225,2.403-0.207c0.08,0.001,0.163,0.005,0.242,0.008
					c4.125,0.159,6.8,1.705,8.539,3.622L149.19,98.31z"/>
				<path fill="#0069AA" d="M119.92,100.087h1.461v1.379h-1.461v4.143c-0.001,0.165,0.025,0.285,0.07,0.348
					c0.043,0.059,0.096,0.097,0.251,0.102c0.308-0.001,0.533-0.087,0.839-0.228l0.202-0.092v1.494l-0.101,0.03
					c-0.469,0.143-0.875,0.231-1.236,0.231c0,0-0.003,0-0.005,0c-0.499,0-0.905-0.141-1.18-0.436
					c-0.275-0.297-0.404-0.726-0.404-1.267v-4.326h-1.179v-1.379h1.179v-1.811l1.564-0.188V100.087z M145.744,99.941
					c-0.846,0-1.463,0.248-1.971,0.952l-0.025-0.809h-0.957v7.3h1.04v-4.411c0-1.142,0.83-2.066,1.829-2.066
					c0.954,0,1.514,0.675,1.514,1.95v4.527h1.041v-4.616C148.215,100.907,147.303,99.941,145.744,99.941z M152.469,101.056v-0.959
					h-1.504v-2.128l-1.038,0.147v1.98h-1.212v0.959h1.212v4.918c0,1.033,0.446,1.536,1.359,1.536c0.338,0,0.704-0.073,1.083-0.192
					v-1.019c-0.351,0.176-0.634,0.267-0.842,0.267c-0.366,0-0.562-0.237-0.562-0.696v-4.813H152.469z M127.769,107.211l0.037,0.172
					h-1.385h-0.118l-0.078-0.416c-0.528,0.353-1.129,0.541-1.795,0.541c-0.001,0-0.002,0-0.002,0
					c-0.752,0.002-1.389-0.226-1.84-0.625c-0.45-0.398-0.707-0.968-0.706-1.623c-0.002-0.776,0.316-1.433,0.883-1.88
					c0.566-0.449,1.371-0.692,2.349-0.692c0.373,0,0.705,0.02,0.996,0.051v-0.485c-0.002-0.323-0.094-0.527-0.275-0.671
					c-0.182-0.143-0.484-0.226-0.918-0.226c-0.619,0.001-1.228,0.247-1.87,0.82l-0.147,0.131l-0.579-1.316l0.06-0.067
					c0.563-0.629,1.779-0.983,2.565-0.99c0.875,0.001,1.555,0.186,2.021,0.59c0.469,0.404,0.694,1.017,0.69,1.8v3.738
					C127.657,106.625,127.728,107.023,127.769,107.211z M126.109,104.134c-0.266-0.035-0.661-0.065-1.051-0.065
					c-0.002,0-0.003,0-0.005,0c-0.443,0-0.854,0.086-1.137,0.27c-0.282,0.186-0.453,0.451-0.458,0.879
					c0.001,0.263,0.09,0.46,0.26,0.605c0.169,0.144,0.436,0.235,0.807,0.235c0.368,0.002,0.757-0.128,1.054-0.341
					c0.298-0.214,0.498-0.504,0.531-0.827V104.134z M115.951,103.669c-0.39-0.359-0.92-0.592-1.523-0.806
					c-0.428-0.15-0.744-0.303-0.942-0.448c-0.201-0.149-0.269-0.276-0.268-0.386c0-0.2,0.079-0.361,0.226-0.484
					c0.149-0.121,0.379-0.203,0.684-0.203c0.466,0.002,0.925,0.188,1.382,0.697l0.131,0.146l0.754-1.296l-0.066-0.078
					c-0.479-0.549-1.401-0.902-2.229-0.906c-0.688,0-1.291,0.205-1.726,0.578c-0.435,0.374-0.693,0.917-0.692,1.56
					c-0.001,0.482,0.175,0.925,0.518,1.29c0.344,0.368,0.85,0.665,1.517,0.895c0.494,0.166,0.829,0.323,1.027,0.483
					c0.197,0.163,0.265,0.307,0.268,0.521c0,0.228-0.104,0.423-0.292,0.571c-0.187,0.147-0.458,0.241-0.774,0.241
					c-0.664-0.003-1.224-0.254-1.711-0.925l-0.142-0.196l-0.671,1.447l0.048,0.068c0.522,0.729,1.529,1.068,2.448,1.069
					c0.001,0,0.001,0,0.001,0c0.771,0,1.435-0.229,1.907-0.636c0.474-0.406,0.75-0.991,0.749-1.669
					C116.576,104.526,116.342,104.03,115.951,103.669z M104.052,104.04l-2.842-7.831h-1.772l3.981,11.176h1.223l4.04-11.176h-1.773
					L104.052,104.04z M109.567,98.112c-0.375,0-0.68,0.304-0.68,0.68s0.304,0.68,0.68,0.68s0.681-0.304,0.681-0.68
					S109.943,98.112,109.567,98.112z M108.793,100.083v7.301h1.549v-7.301H110.2H108.793z M140.331,107.384h1.038v-7.288h-1.038
					V107.384z M140.853,98.294c-0.32,0-0.579,0.259-0.579,0.58c0,0.32,0.259,0.58,0.579,0.58s0.579-0.26,0.579-0.58
					C141.432,98.553,141.173,98.294,140.853,98.294z M135.141,103.741c0,2.017-1.038,3.781-3.075,3.781
					c-0.826,0-1.529-0.293-2.036-0.867v3.884h-1.039V99.929h0.899l0.096,0.929c0.562-0.619,1.254-0.912,2.025-0.912
					C134.09,99.946,135.141,101.638,135.141,103.741z M134.061,103.727c0-1.413-0.703-2.795-2.108-2.795
					c-1.012,0-1.938,0.969-1.938,2.177v1.354c0,1.059,0.913,2.09,1.925,2.09C133.29,106.552,134.061,105.478,134.061,103.727z
					 M139.669,100.25c-0.242-0.15-0.412-0.249-0.758-0.302c-0.833-0.124-1.399,0.167-1.904,0.87l-0.028-0.807h-0.955v7.3h1.041
					V102.9c0-1.143,0.646-1.982,1.704-1.957c0.159,0.004,0.351,0.056,0.546,0.186L139.669,100.25z"/>
			</g>
		</g>
	</g>
	<g display="none">
		<g display="inline">
			<text transform="matrix(1 0 0 1 134.6387 23.9067)" fill="#1C1B1A" font-family="'ArialMT'" font-size="9">TRIM</text>
		</g>
	</g>
	<g display="none">
		<path display="inline" d="M94.765,40.085l0.804-0.07c0.038,0.322,0.126,0.587,0.266,0.793c0.139,0.207,0.355,0.374,0.648,0.501
			c0.293,0.128,0.623,0.191,0.989,0.191c0.325,0,0.612-0.048,0.861-0.145s0.434-0.229,0.556-0.398
			c0.122-0.168,0.183-0.352,0.183-0.551c0-0.202-0.059-0.378-0.176-0.53c-0.117-0.15-0.311-0.277-0.58-0.38
			c-0.173-0.067-0.555-0.172-1.147-0.314c-0.592-0.142-1.006-0.276-1.244-0.402c-0.308-0.161-0.537-0.361-0.688-0.6
			c-0.151-0.238-0.227-0.506-0.227-0.802c0-0.325,0.092-0.629,0.277-0.912c0.185-0.282,0.454-0.497,0.809-0.644
			s0.749-0.22,1.182-0.22c0.478,0,0.898,0.077,1.264,0.23c0.364,0.154,0.645,0.38,0.841,0.679s0.302,0.637,0.316,1.015l-0.817,0.062
			c-0.044-0.407-0.193-0.715-0.446-0.923c-0.254-0.208-0.628-0.312-1.123-0.312c-0.516,0-0.892,0.094-1.127,0.284
			c-0.236,0.188-0.354,0.417-0.354,0.683c0,0.231,0.083,0.422,0.25,0.571c0.164,0.149,0.592,0.303,1.285,0.459
			s1.168,0.293,1.426,0.411c0.375,0.173,0.652,0.392,0.831,0.657c0.179,0.266,0.268,0.571,0.268,0.917
			c0,0.343-0.098,0.666-0.294,0.969c-0.196,0.303-0.479,0.539-0.846,0.707c-0.368,0.168-0.782,0.253-1.242,0.253
			c-0.583,0-1.072-0.085-1.465-0.255c-0.395-0.17-0.703-0.425-0.928-0.767C94.895,40.902,94.776,40.516,94.765,40.085z"/>
		<path display="inline" d="M100.35,42.155l2.474-6.442h0.918l2.637,6.442h-0.971l-0.751-1.951h-2.694l-0.708,1.951H100.35z
			 M102.209,39.51h2.184l-0.672-1.784c-0.205-0.542-0.357-0.987-0.457-1.336c-0.082,0.413-0.198,0.823-0.347,1.23L102.209,39.51z"/>
		<path display="inline" d="M107.104,42.155v-6.442h4.346v0.76h-3.494v1.995h3.023v0.76h-3.023v2.927H107.104z"/>
		<path display="inline" d="M112.576,42.155v-6.442h4.658v0.76h-3.806v1.973h3.564v0.756h-3.564v2.193h3.955v0.76H112.576z"/>
		<path display="inline" d="M121.035,42.155v-6.442h1.283l1.525,4.562c0.141,0.425,0.243,0.743,0.308,0.954
			c0.073-0.234,0.188-0.579,0.343-1.033l1.542-4.482h1.147v6.442h-0.822v-5.392l-1.872,5.392h-0.769l-1.863-5.484v5.484H121.035z"/>
		<path display="inline" d="M127.852,42.155l2.474-6.442h0.919l2.637,6.442h-0.972l-0.751-1.951h-2.694l-0.708,1.951H127.852z
			 M129.71,39.51h2.185l-0.673-1.784c-0.205-0.542-0.357-0.987-0.457-1.336c-0.082,0.413-0.198,0.823-0.347,1.23L129.71,39.51z"/>
		<path display="inline" d="M134.574,42.155v-6.442h2.857c0.573,0,1.01,0.058,1.309,0.173c0.299,0.116,0.538,0.32,0.717,0.613
			s0.268,0.617,0.268,0.971c0,0.457-0.147,0.842-0.443,1.156s-0.753,0.513-1.371,0.598c0.226,0.108,0.396,0.215,0.514,0.321
			c0.249,0.229,0.485,0.514,0.708,0.857l1.12,1.753h-1.072l-0.852-1.34c-0.25-0.387-0.455-0.683-0.615-0.888
			c-0.162-0.205-0.306-0.349-0.434-0.431c-0.127-0.082-0.257-0.139-0.389-0.171c-0.097-0.021-0.255-0.031-0.475-0.031h-0.988v2.861
			H134.574z M135.428,38.556h1.832c0.39,0,0.694-0.04,0.914-0.121c0.22-0.08,0.387-0.209,0.501-0.387
			c0.114-0.177,0.171-0.37,0.171-0.578c0-0.305-0.11-0.555-0.331-0.751c-0.222-0.196-0.571-0.294-1.048-0.294h-2.039V38.556z"/>
		<path display="inline" d="M144.076,39.628v-0.756l2.729-0.004v2.391c-0.419,0.334-0.851,0.585-1.296,0.753
			c-0.445,0.168-0.902,0.253-1.371,0.253c-0.633,0-1.208-0.135-1.725-0.406c-0.518-0.271-0.907-0.663-1.171-1.176
			s-0.396-1.085-0.396-1.718c0-0.627,0.132-1.212,0.394-1.755c0.263-0.543,0.64-0.947,1.132-1.211s1.059-0.396,1.701-0.396
			c0.465,0,0.887,0.076,1.263,0.227c0.377,0.151,0.672,0.361,0.886,0.63s0.376,0.621,0.488,1.055l-0.77,0.211
			c-0.097-0.328-0.217-0.586-0.36-0.773s-0.349-0.337-0.615-0.451c-0.267-0.112-0.562-0.169-0.888-0.169
			c-0.39,0-0.727,0.06-1.011,0.178c-0.284,0.119-0.514,0.275-0.688,0.468c-0.175,0.193-0.31,0.406-0.407,0.637
			c-0.164,0.398-0.246,0.831-0.246,1.296c0,0.574,0.1,1.055,0.297,1.441c0.198,0.387,0.486,0.674,0.863,0.861
			c0.379,0.188,0.779,0.281,1.205,0.281c0.369,0,0.729-0.071,1.08-0.213c0.352-0.142,0.618-0.293,0.801-0.455v-1.2H144.076z"/>
		<path display="inline" d="M148.207,42.155v-6.442h0.852v6.442H148.207z"/>
		<path display="inline" d="M150.553,42.155v-6.442h0.875l3.383,5.058v-5.058h0.818v6.442h-0.875l-3.384-5.062v5.062H150.553z"/>
	</g>
</g>
<g>
</g>
</svg>
